G75*
%MOIN*%
%OFA0B0*%
%FSLAX24Y24*%
%IPPOS*%
%LPD*%
%AMOC8*
5,1,8,0,0,1.08239X$1,22.5*
%
%ADD10R,0.0220X0.0500*%
%ADD11R,0.0500X0.0220*%
%ADD12R,0.0700X0.1000*%
%ADD13R,0.1575X0.1575*%
%ADD14R,0.0630X0.0551*%
%ADD15R,0.0394X0.0433*%
%ADD16R,0.0433X0.0394*%
%ADD17R,0.0600X0.0300*%
%ADD18R,0.0217X0.0472*%
%ADD19R,0.0315X0.0315*%
%ADD20R,0.0551X0.0138*%
%ADD21R,0.0748X0.0709*%
%ADD22R,0.0748X0.0748*%
D10*
X007498Y005710D03*
X007813Y005710D03*
X008128Y005710D03*
X008443Y005710D03*
X008757Y005710D03*
X009072Y005710D03*
X009387Y005710D03*
X009702Y005710D03*
X009702Y009090D03*
X009387Y009090D03*
X009072Y009090D03*
X008757Y009090D03*
X008443Y009090D03*
X008128Y009090D03*
X007813Y009090D03*
X007498Y009090D03*
D11*
X006910Y008502D03*
X006910Y008187D03*
X006910Y007872D03*
X006910Y007557D03*
X006910Y007243D03*
X006910Y006928D03*
X006910Y006613D03*
X006910Y006298D03*
X010290Y006298D03*
X010290Y006613D03*
X010290Y006928D03*
X010290Y007243D03*
X010290Y007557D03*
X010290Y007872D03*
X010290Y008187D03*
X010290Y008502D03*
D12*
X015669Y008590D03*
X015669Y009810D03*
X024331Y009810D03*
X024331Y008590D03*
D13*
X020000Y009200D03*
D14*
X015100Y006451D03*
X015100Y005349D03*
D15*
X003020Y003245D03*
X003020Y003915D03*
X002260Y003925D03*
X002260Y004595D03*
X008600Y003935D03*
X008600Y003265D03*
X013100Y005565D03*
X014100Y005565D03*
X014100Y006235D03*
X013100Y006235D03*
X016100Y003235D03*
X017100Y003235D03*
X017100Y002565D03*
X016100Y002565D03*
D16*
X019265Y004200D03*
X019935Y004200D03*
X021165Y004200D03*
X021835Y004200D03*
X010435Y005000D03*
X009765Y005000D03*
X008935Y004900D03*
X008265Y004900D03*
D17*
X005100Y004650D03*
X003100Y004650D03*
X003100Y006150D03*
X005100Y006150D03*
D18*
X017926Y003412D03*
X018674Y003412D03*
X018674Y002388D03*
X018300Y002388D03*
X017926Y002388D03*
D19*
X018105Y004200D03*
X018695Y004200D03*
D20*
X022857Y003912D03*
X022857Y003656D03*
X022857Y003400D03*
X022857Y003144D03*
X022857Y002888D03*
D21*
X023900Y001825D03*
X023900Y004975D03*
D22*
X023900Y003900D03*
X023900Y002900D03*
M02*
